<svg width="64" height="64" viewBox="0 0 64 64" fill="none" xmlns="http://www.w3.org/2000/svg">
<rect width="64" height="64" fill="#F6F8FB"/>
<path d="M35 28V24H25V40H39V28H35ZM23 22.9918C23 22.4441 23.4475 22 23.9985 22H36L40.9997 27L41 40.9925C41 41.5489 40.5551 42 40.0066 42H23.9934C23.4448 42 23 41.5447 23 41.0082V22.9918ZM31 29.5C31 30.3284 30.3284 31 29.5 31C28.6716 31 28 30.3284 28 29.5C28 28.6716 28.6716 28 29.5 28C30.3284 28 31 28.6716 31 29.5ZM37.5 37L33.5 30L28 37H37.5Z" fill="#1577A9"/>
</svg>
