<svg width="18" height="18" viewBox="0 0 18 18" fill="none" xmlns="http://www.w3.org/2000/svg">
    <g clip-path="url(#clip0_133_68)">
        <path d="M11.9171 2.70483L12.6864 4.14732L14.1288 4.91664L12.6864 5.68596L11.9171 7.12845L11.1477 5.68596L9.70525 4.91664L11.1477 4.14732L11.9171 2.70483ZM6.66705 4.52775L8.22259 7.44442L11.1393 8.99996L8.22259 10.5555L6.66705 13.4722L5.11149 10.5555L2.19482 8.99996L5.11149 7.44442L6.66705 4.52775ZM13.4726 11.5278L12.5004 9.70486L11.5282 11.5278L9.70525 12.5L11.5282 13.4722L12.5004 15.2951L13.4726 13.4722L15.2955 12.5L13.4726 11.5278Z" fill="#6C7885"/>
    </g>
    <defs>
        <clipPath id="clip0_133_68">
            <rect width="14" height="14" fill="white" transform="translate(2 2)"/>
        </clipPath>
    </defs>
</svg>
